<?xml version="1.0" standalone="no"?>
<!DOCTYPE svg PUBLIC "-//W3C//DTD SVG 20010904//EN"
 "http://www.w3.org/TR/2001/REC-SVG-20010904/DTD/svg10.dtd">
<svg version="1.0" xmlns="http://www.w3.org/2000/svg"
 width="153.000000pt" height="199.000000pt" viewBox="0 0 153.000000 199.000000"
 preserveAspectRatio="xMidYMid meet">

<g transform="translate(0.000000,199.000000) scale(0.100000,-0.100000)"
fill="#000000" stroke="none">
<path d="M502 1880 c-44 -18 -52 -99 -12 -120 50 -27 110 2 110 53 0 38 -7 50
-37 66 -25 13 -30 13 -61 1z"/>
<path d="M1105 1865 c-30 -29 -32 -64 -5 -93 41 -44 120 -15 120 43 0 31 -41
75 -70 75 -11 0 -32 -11 -45 -25z"/>
<path d="M830 1780 c0 -16 5 -30 10 -30 6 0 10 14 10 30 0 17 -4 30 -10 30 -5
0 -10 -13 -10 -30z"/>
<path d="M660 1739 c7 -11 14 -19 16 -16 7 7 -7 37 -17 37 -6 0 -5 -9 1 -21z"/>
<path d="M1006 1744 c-4 -10 -1 -14 6 -12 15 5 23 28 10 28 -5 0 -13 -7 -16
-16z"/>
<path d="M530 1615 c7 -8 17 -15 22 -15 6 0 5 7 -2 15 -7 8 -17 15 -22 15 -6
0 -5 -7 2 -15z"/>
<path d="M1140 1620 c-8 -5 -12 -11 -9 -14 2 -3 11 -1 19 4 8 5 12 11 9 14 -2
3 -11 1 -19 -4z"/>
<path d="M948 1535 c-54 -36 -103 -65 -109 -65 -6 0 -45 18 -85 41 -41 22 -74
38 -74 35 0 -3 28 -27 63 -52 34 -25 70 -55 80 -67 l17 -22 23 26 c12 14 59
56 105 93 72 60 89 76 79 76 -1 0 -46 -29 -99 -65z"/>
<path d="M323 1418 c10 -155 56 -257 167 -362 64 -62 154 -109 238 -127 98
-20 93 2 90 -402 -3 -389 -5 -399 -68 -432 -38 -19 -103 -19 -141 1 -54 28
-69 78 -69 244 0 80 -4 161 -10 179 -14 51 -55 88 -112 103 -28 7 -53 19 -56
28 -10 30 -46 60 -79 66 -76 14 -133 -30 -133 -103 0 -38 5 -50 35 -80 33 -33
39 -35 82 -30 46 5 83 32 95 69 4 11 13 10 48 -2 73 -25 83 -53 85 -239 2
-115 6 -165 17 -191 63 -143 271 -143 337 0 13 29 17 93 21 397 3 199 8 364
12 368 3 4 37 14 75 24 244 64 403 263 403 508 l0 73 -30 0 c-30 0 -30 0 -30
-57 0 -66 -22 -169 -46 -216 -56 -111 -162 -200 -282 -237 -264 -82 -542 99
-582 377 -5 39 -7 86 -4 102 6 30 6 31 -31 31 l-38 0 6 -92z m-5 -754 c30 -33
29 -78 -3 -109 -44 -45 -121 -25 -140 35 -10 33 14 81 49 96 38 16 64 10 94
-22z"/>
<path d="M220 650 c-32 -32 -24 -75 18 -91 56 -21 98 54 54 94 -25 22 -48 21
-72 -3z"/>
<path d="M470 1440 c0 -5 14 -10 30 -10 17 0 30 5 30 10 0 6 -13 10 -30 10
-16 0 -30 -4 -30 -10z"/>
<path d="M1150 1440 c0 -5 14 -10 30 -10 17 0 30 5 30 10 0 6 -13 10 -30 10
-16 0 -30 -4 -30 -10z"/>
<path d="M530 1270 c-8 -5 -12 -11 -9 -14 3 -3 14 1 25 9 21 16 8 20 -16 5z"/>
<path d="M1130 1272 c0 -5 7 -13 16 -16 10 -4 14 -1 12 6 -5 15 -28 23 -28 10z"/>
<path d="M660 1141 c-6 -12 -7 -21 -1 -21 10 0 24 30 17 37 -2 3 -9 -5 -16
-16z"/>
<path d="M1000 1151 c0 -5 7 -14 15 -21 16 -14 18 -10 9 14 -6 17 -24 22 -24
7z"/>
<path d="M837 1133 c-11 -10 -8 -63 3 -63 6 0 10 16 10 35 0 36 -2 40 -13 28z"/>
</g>
</svg>
